<?xml version="1.0" encoding="UTF-8"?>
<svg xmlns="http://www.w3.org/2000/svg" xmlns:xlink="http://www.w3.org/1999/xlink" viewBox="0 0 200 142.52">
    <defs>
        <style>
            .white {
                fill: #fff;
            }

            .logo-line-top {
                fill: url(#line-top-gradient);
            }

            .logo-line-left {
                fill: url(#line-left-gradient);
            }

            .logo-line-right {
                fill: url(#line-right-gradient);
            }

            .logo-bg {
                fill: url(#logo-bg-gradient);
            }
        </style>
        <linearGradient id="line-top-gradient" x1="10.76" y1="147.31" x2="262.25" y2="2.11" gradientTransform="translate(0 144) scale(1 -1)" gradientUnits="userSpaceOnUse">
            <stop offset=".05" stop-color="#ffcd34" />
            <stop offset=".12" stop-color="#fdc42f" />
            <stop offset=".22" stop-color="#faab24" />
            <stop offset=".29" stop-color="#f8991c" />
            <stop offset=".32" stop-color="#f8a124" />
            <stop offset=".37" stop-color="#fbba3d" />
            <stop offset=".43" stop-color="#ffe568" />
            <stop offset=".55" stop-color="#fdcd4a" />
            <stop offset=".71" stop-color="#fab026" />
            <stop offset=".8" stop-color="#faa619" />
        </linearGradient>
        <linearGradient id="line-left-gradient" x1="-6.53" y1="77.72" x2="64.01" y2="36.99" gradientTransform="translate(0 144) scale(1 -1)" gradientUnits="userSpaceOnUse">
            <stop offset=".36" stop-color="#ffcc3a" />
            <stop offset=".56" stop-color="#fcaf16" />
            <stop offset=".65" stop-color="#fba817" />
            <stop offset=".77" stop-color="#f8971a" />
            <stop offset=".91" stop-color="#f47b1f" />
            <stop offset=".93" stop-color="#f47720" />
        </linearGradient>
        <linearGradient id="line-right-gradient" x1="-9.47" y1="119.08" x2="245.46" y2="-28.09" gradientTransform="translate(0 144) scale(1 -1)" gradientUnits="userSpaceOnUse">
            <stop offset=".36" stop-color="#faa818" />
            <stop offset=".37" stop-color="#faac20" />
            <stop offset=".4" stop-color="#fcba39" />
            <stop offset=".43" stop-color="#ffd56a" />
            <stop offset=".44" stop-color="#ffd66c" />
            <stop offset=".46" stop-color="#ffdc73" />
            <stop offset=".52" stop-color="#ffde75" />
            <stop offset=".6" stop-color="#fdb713" />
            <stop offset=".64" stop-color="#fdb716" />
            <stop offset=".66" stop-color="#fdb91f" />
            <stop offset=".69" stop-color="#fdbc2f" />
            <stop offset=".71" stop-color="#fdc046" />
            <stop offset=".73" stop-color="#fec357" />
        </linearGradient>
        <linearGradient id="logo-bg-gradient" x1="28.79" y1="124.42" x2="171.19" y2="42.2" gradientTransform="translate(0 144) scale(1 -1)" gradientUnits="userSpaceOnUse">
            <stop offset=".05" stop-color="#ce1527" />
            <stop offset=".12" stop-color="#d41628" />
            <stop offset=".23" stop-color="#e7192c" />
            <stop offset=".26" stop-color="#ed1a2e" />
            <stop offset=".72" stop-color="#ed1a2e" />
            <stop offset=".77" stop-color="#e5182c" />
            <stop offset=".86" stop-color="#ce1527" />
        </linearGradient>
    </defs>
    <g>
        <path class="white" d="M170.32,17.48C151.5,6.22,126.52,0,99.99,0S48.47,6.22,29.65,17.48C10.52,28.95,0,44.27,0,60.67c0,11.89,5.62,23.36,16.22,33.22,9.68,9,23.12,16.27,38.92,21.07-7.06,3.7-11,8.48-13.17,12.91-2.49,5.09-2.7,11.18-2.39,13.91.08.71,1.08,1.08,1.68.29.6-.81,1.23-1.57,1.97-2.31,1.63-1.63,3.7-3.12,6.95-4.54,9.11-4.04,24.01-6.27,40.6-8.77,23.12-3.49,49.31-7.43,70.75-17.48,9.19-4.3,17.32-10,24.22-16.95,9.32-9.4,14.25-20.23,14.25-31.33,0-16.4-10.52-31.75-29.65-43.2l-.03-.03Z" />
        <path class="logo-line-top logo-line" d="M99.99,1.97C45.85,1.97,1.97,28.26,1.97,60.67h6.09C8.06,33.2,47.4,7.64,99.99,7.64s91.93,25.56,91.93,53.04h6.09C198.01,28.26,154.13,1.97,99.99,1.97Z" />
        <path class="logo-line-right logo-line" d="M195.12,58.29l-3.18,2.39c0,47.58-98.49,38.92-133.84,55.03-13.2,6.03-16.77,15.98-16.74,23.3,13.07-16.04,76.6-11.78,119.33-31.81,8.66-4.07,16.72-9.55,23.67-16.56,8.69-8.77,13.67-19,13.67-29.94l-2.91-2.39v-.03Z" />
        <path class="logo-line-left logo-line" d="M8.06,60.67l-2.81-2.05-3.28,2.05c0,23.44,22.88,43.64,56,53.06,2.91-1.29,6.19-2.41,9.76-3.41-35.64-7.82-59.68-28.16-59.68-49.65Z" />
        <path class="logo-bg" d="M171.24,87.36c8.45-4.46,14.59-10.21,17.22-17.95.1-.31.18-.6.26-.92.08-.26.16-.52.21-.76.58-2.34.89-4.67.89-7.03,0-12.91-8.82-25.38-25.01-35.06-17.22-10.29-40.23-15.98-64.79-15.98s-47.61,5.67-64.79,15.98c-16.19,9.68-25.01,22.15-25.01,35.06s8.82,25.38,25.01,35.06c10.47,6.27,23.12,10.81,36.95,13.41,9.32-2.28,20.18-3.96,31.52-5.67,24.25-3.59,50.54-7.16,67.58-16.17l-.03.03Z" />
        <path class="white" d="M74.35,39.65h-10.81c-.97,0-1.29-.45-1.29-1.29v-5.67c0-1.29-.84-2.62-3.1-2.62h-2.31c-2.18,0-3.02,1.34-3.02,2.62v5.67c0,.84-.31,1.29-1.29,1.29h-10.81c-1.29,0-2.57.71-2.57,2.7v1.81c0,1.99,1.29,2.7,2.57,2.7h5.54c-3.28,2.73-5.35,6.67-5.35,11.05,0,8.11,7.22,14.8,16.09,14.8s16.14-6.88,16.14-14.93c0-4.38-2.02-8.24-5.25-10.92h5.46c1.29,0,2.57-.71,2.57-2.7v-1.81c0-1.99-1.29-2.7-2.57-2.7ZM58.02,65.5c-4.25,0-7.66-3.46-7.66-7.58s3.41-7.66,7.66-7.66,7.72,3.23,7.72,7.58c0,4.12-3.46,7.66-7.72,7.66Z" />
        <path class="white" d="M97.52,50.36h-7.22c-.84,0-1.29-.31-1.29-1.29v-14.8c0-1.29-.84-2.65-3.07-2.65h-2.31c-2.18,0-3.02,1.34-3.02,2.65v51.52c0,1.29.84,2.65,3.02,2.65h2.31c2.26,0,3.07-1.34,3.07-2.65v-26.69c0-.97.45-1.29,1.29-1.29h7.22c1.29,0,2.57-.84,2.57-2.83v-1.81c0-1.99-1.29-2.83-2.57-2.83v.03Z" />
        <path class="white" d="M148.46,67.45h-34.54c-1.68,0-2.57.84-2.57,2.57v12.39c0,4.23,3.33,6.67,8.08,6.67h23.51c4.78,0,8.08-2.44,8.08-6.67v-12.39c0-1.73-.89-2.57-2.57-2.57ZM142.61,80.65c0,.97-.45,1.29-1.29,1.29h-20.26c-.84,0-1.29-.31-1.29-1.29v-4.72c0-.97.45-1.29,1.29-1.29h20.26c.84,0,1.29.31,1.29,1.29v4.72Z" />
        <path class="white" d="M147.96,31.18h-2.31c-2.18,0-3.02,1.36-3.02,2.62v20.73c-2.83,1.31-5.54,1.89-13.02,1.89h-17.14c-.84,0-1.29-.31-1.29-1.29v-2.31c0-.97.45-1.29,1.29-1.29h18.21c1.68,0,2.57-.84,2.57-2.57v-13.25c0-1.73-.89-2.57-2.57-2.57h-25.48c-1.29,0-2.57.71-2.57,2.7v1.6c0,1.99,1.29,2.7,2.57,2.7h18.4c.84,0,1.29.31,1.29,1.29v1.86c0,.97-.45,1.29-1.29,1.29h-18.19c-1.68,0-2.57.84-2.57,2.57v9.45c0,4.23,2.65,6.82,8.24,6.82h18.5c7.61,0,10.52-.89,13.1-2.26v1.36c0,1.29.84,2.62,3.02,2.62h2.31c2.26,0,3.1-1.34,3.1-2.62v-28.74c0-1.29-.84-2.62-3.1-2.62h-.05Z" />
    </g>
</svg>